<svg xmlns="http://www.w3.org/2000/svg" xmlns:xlink="http://www.w3.org/1999/xlink" width="169.991" height="47" viewBox="0 0 169.991 47">
    <defs>
        <linearGradient id="linear-gradient" x1="0.704" y1="0.636" x2="0.099" y2="0.126" gradientUnits="objectBoundingBox">
            <stop offset="0" stop-color="#ef8200"/>
            <stop offset="1" stop-color="#fff000"/>
        </linearGradient>
        <linearGradient id="linear-gradient-2" x1="0.831" y1="0.257" x2="0.217" y2="0.682" gradientUnits="objectBoundingBox">
            <stop offset="0" stop-color="#009fe8"/>
            <stop offset="1" stop-color="#1d2087"/>
        </linearGradient>
    </defs>
    <g id="组_105" data-name="组 105" transform="translate(-8 -7.95)">
        <g id="组_103" data-name="组 103">
            <path id="路径_80" data-name="路径 80" d="M35.426,27.046H47.945l-12.158,18.1L26.155,31.056s-3.819-5.347-1.146-9.548,7.872-3.947,9.569-3.713a21.5,21.5,0,0,1,4.18,1.273s-5.9-.765-8,1.909-1.122,5.219.149,7.065S36.891,37,36.891,37L41.9,29.442H37.486Z" fill-rule="evenodd" fill="url(#linear-gradient)"/>
            <path id="路径_81" data-name="路径 81" d="M27.975,36.164l2,3.037-4.71,5.477-7.384-10.4c-5.279-7.807-2.987-19.74,6.182-23.994,21.327-9.9,40.073,13.67,28.912,32.947-8.4,14.513-28.771,14.6-37.088,5.432S6.635,30.884,9.393,22.227s8.614-11.033,8.614-11.033S10.5,19.383,12.279,29.738,22,48.069,31.2,48.2s19.138-6.535,18.162-19.309S36.737,13.654,30.4,13.866s-11.033,7.065-9.8,12.307,6.195,11.2,6.195,11.2Z" fill-rule="evenodd" fill="url(#linear-gradient-2)"/>
        </g>
        <g id="组_104" data-name="组 104">
            <path id="路径_82" data-name="路径 82" d="M74.571,14.217H76.6l-.263-1.061h3l.35,1.061h2.645v2.908H79.861v2.469h2.645v2.735H79.861V25.06h2.645v3H79.861v2.735H82.42V33.44H70.779V18.183l-4.143,8.2h3.085V29.12H62.843V27.442L65.4,22.506H62.667V19.594l3.262-6.348h2.912l-3.529,6.615h1.5l.971-1.942h2.028V15.628H70.6c.353.056.59-.147.707-.617l.527-1.855h3.089l-.354,1.061ZM73.6,19.684h3.176V17.125H73.6v2.559Zm.091,5.376h3.085V22.415H73.691V25.06Zm0,5.734h3.085V27.882H73.691v2.912ZM62.753,33.353h6.968V30.794H62.753v2.559Zm24-17.285V13.423h7.849v2.645Zm8.906,11.551V13.333h10.053v14.2h-2.731V15.978H98.4V27.619Zm2.028,2.645a1.123,1.123,0,0,1-1.144.707H95.49v2.292h1.937a2.173,2.173,0,0,0,2.205-1.144l1.5-2.735v2.2c-.121,1.234.47,1.821,1.76,1.765h3.089v-2.3h-1.678c-.41.06-.587-.147-.526-.617V28.5h-2.205l.35-.794V17.742H99.456v9.173l-1.765,3.349ZM89.579,33.44V20.655H86.671V18.006H94.7v2.649H92.047V33.44Zm-3.085-2.469v1.938h1.147q1.322.09,1.321-1.5V21.975H87.2V30q.092,1.145-.44.97Zm6.084-9v9.35c-.061,1.057.383,1.584,1.324,1.584H94.7V30.971c-.3.057-.414-.09-.354-.44V21.975Zm29.207-7.408H123.2V13.246h2.732v1.321h1.678l.086-1.144h2.118l-.176,1.144h.794v2.028h-4.5v.971h4.586v2.028H126.9l.708.793c.056.177.293.268.7.268h2.205v1.937h-3c-.94.06-1.527-.177-1.764-.7l-.967-1.325-1.061,1.411a1.286,1.286,0,0,1-1.321.617h-3.175V20.655h2.118c.173.056.35-.031.527-.268l.617-.793H119.14V17.566h4.143v-.971H119.14V14.567h.7l-.177-1.057h1.941l.177,1.057Zm-10.407-1.234h7.145V31.412c.056,1.471-.561,2.174-1.855,2.118h-1.674V31.235h.53c.177.06.264-.06.264-.354V27.265h-1.675V31.5q0,1.941-1.411,2.032h-2.3v-2.2h.708a.234.234,0,0,0,.263-.267V13.333Zm2.735,5.911h1.675V16.068h-1.675v3.176Zm0,5.553h1.675V21.712h-1.675V24.8Zm5.2-1.5H129.9v3.792h.617v4.583q0,1.676-1.588,1.678h-2.381v-.884h-7.4V30.441h7.5V31.5h.7a1.034,1.034,0,0,0,.268-.173V29.207h-6.528c-1.234.06-1.821-.5-1.761-1.675V25.854h2.555v.885c0,.293.09.41.267.353h5.29V25.414h-8.112V23.3Zm15.008-8.906h6.261c.353.056.526-.121.526-.531V13.51H144.2v1.057q.266,2.382-2.468,2.118h-.707v1.321h3.262v2.558h-3.439V33.353h-2.822V20.564h-3.793V18.006h3.793V16.772h-3.7V14.394ZM144.9,24.8l-.44-3.525h3l.354,2.2q.176.88.88.794h.708v2.378H147.11q-2.292.181-2.205-1.851Zm-.44-10.4h3l.354,2.555c.056.647.324.94.794.884h.88V20.3h-2.822q-1.5.266-1.764-2.028l-.44-3.879ZM135.382,33q2.206.176,2.118-2.028l.173-9.7h-2.645l-.263,8.642c-.117.527-.237.764-.354.7h-.177V33ZM141.2,21.272l.086,9.522q-.084,2.292,1.678,2.115H144.2v-1.5l5.644-.531V33.44h2.908V30.7l1.234-.086v-3l-1.234.177V13.423h-2.821v14.55l-5.731.53v1.761h-.177c-.176,0-.263-.177-.263-.527l-.177-8.465Zm25.855-6.7H170.5V12.806h3.085v1.761h4.409v2.382h-4.409v2.645h4.409v2.2l-4.056,6,1.675,2.118a.934.934,0,0,0,1.147.527h1.234v2.381h-3a1.462,1.462,0,0,1-1.321-.7l-1.411-1.942L170.5,32.469c-.177.237-.557.353-1.148.353h-3.085V30.441h1.851c.293.06.587-.117.884-.527l1.674-2.118-3.615-4.764H170.5l1.764,2.382,2.205-3.439h-7.585V19.594H170.5V16.949h-3.439V14.567Zm-9,2.558h4.409v2.382l-3.525,6.174c-.354.587-.647.851-.884.79H157.8V29.03h1.148a1.474,1.474,0,0,0,1.674-.881l1.765-3.089v4.854c0,.41-.177.587-.531.527h-3.439v2.381h4.763q2.382.176,2.205-2.2V21.095h.794V18.273h-.794V17.125h1.144V14.48h-1.144v-1.5h-2.912v1.5h-4.409Z" fill="#fff" fill-rule="evenodd"/>
            <path id="路径_83" data-name="路径 83" d="M67.613,46.919l2.326-8.991h2.912l2.069,8.991h.064l1.943-8.991h2.392L76.278,49.894H73.433L71.3,40.773l-2.326,9.121H66.06L63.148,37.928H65.8l1.813,8.991Zm16.441-8.991V49.894H81.466V37.928ZM96.03,41.356H93.574a1.736,1.736,0,0,0-1.94-1.811c-1.253.086-1.9.605-1.943,1.551q-.127,1.362,2.2,1.683c.088.042.174.086.259.13q4.268.84,4.2,3.234-.129,3.751-5.108,3.88-4.724-.066-4.592-3.946h2.586q0,2.136,2.006,2.2,2.326-.068,2.393-1.551,0-1.169-2.263-1.684c-.174-.041-.323-.085-.453-.129q-4.011-.841-3.946-3.3.2-3.623,4.981-3.946,3.879.261,4.073,3.687Zm5.447-1.422v7.953h1.358q3.555.134,3.49-3.943.068-4.077-3.49-4.01Zm-2.525,9.96V37.928h4.076q5.952.066,6.016,6.016-.067,5.949-6.016,5.95Zm18.19.129q-5.629-.127-5.756-6.079.127-6.081,5.756-6.275,5.5.194,5.691,6.275-.195,5.949-5.691,6.079Zm0-10.478q-3.1,0-3.041,4.4-.062,4.4,3.041,4.333,2.976,0,2.975-4.333,0-4.4-2.975-4.4Zm19.416.064-3.364,10.285h-2.133L127.89,39.609l-.063.066V49.894h-2.393V37.928h4.2l2.522,8.731h.066l2.716-8.731h4.01V49.894h-2.393V39.609Zm8.276.325V37.928h9.7v2.006H150.98v9.96h-2.589v-9.96Zm11.785,9.96V37.928h8.02v2.006h-5.434v2.779h5.045v2.006h-5.045v3.168h5.627v2.007Zm20.644-8.086h-2.718a2.189,2.189,0,0,0-2.326-2.263q-2.136.129-2.266,4.4.132,4.268,2.266,4.333a2.145,2.145,0,0,0,2.326-2.263h2.718q-.261,3.945-5.044,4.009-4.853-.127-4.981-6.079.127-6.081,4.981-6.275Q177,37.8,177.263,41.808Z" fill="#fff" fill-rule="evenodd"/>
        </g>
    </g>
</svg>
